<svg id="Layer_1" data-name="Layer 1" xmlns="http://www.w3.org/2000/svg" viewBox="0 0 24 55.41"><defs><style>.cls-1{fill-rule:evenodd;}</style></defs><path class="cls-1" d="M40,41h0V59a10,10,0,1,0,20,0V41a10,10,0,1,0-20,0Zm-2,0a12,12,0,1,1,24,0V59a12,12,0,1,1-24,0V41Z" transform="translate(-38 -29)"/><path class="cls-1" d="M49,36v4a1,1,0,0,0,2,0V36a1,1,0,0,0-2,0Z" transform="translate(-38 -29)"/><path class="cls-1" d="M50,82l5.5-5.5a1,1,0,0,1,1.41,0,1,1,0,0,1,0,1.42l-6.2,6.2a1,1,0,0,1-1.42,0L43,77.86a1,1,0,0,1,1.41-1.41Z" transform="translate(-38 -29)"/></svg>