<svg width="1200" height="640" viewBox="0 0 1200 640" fill="none" xmlns="http://www.w3.org/2000/svg">
<g clip-path="url(#clip0_427_8)">
<rect width="1200" height="640" fill="#83BCF1"/>
<g filter="url(#filter0_f_427_8)">
<circle cx="1050" cy="152" r="335" fill="url(#paint0_linear_427_8)"/>
</g>
<g filter="url(#filter1_f_427_8)">
<circle cx="340" cy="406" r="335" fill="url(#paint1_linear_427_8)"/>
</g>
<circle cx="893" cy="120" r="37" fill="#D9C1E4"/>
<circle opacity="0.7" cx="743" cy="120" r="37" fill="#BCFFFB"/>
<circle cx="1042" cy="120" r="37" fill="#6C438C"/>
<path opacity="0.7" d="M967.947 370.894L1062.89 425.842L967.947 480.789L873 425.842L967.947 370.894Z" fill="#D9C1E4"/>
<path opacity="0.9" d="M967.947 300.894L1062.89 355.842L967.947 410.789L873 355.842L967.947 300.894Z" fill="#6C438C"/>
<path opacity="0.7" d="M967.947 231L1062.89 285.947L967.947 340.894L873 285.947L967.947 231Z" fill="#BCFFFB"/>
<rect opacity="0.5" x="874.5" y="230.5" width="191" height="251" stroke="white"/>
<line opacity="0.5" x1="937.5" y1="230" x2="937.5" y2="475" stroke="white"/>
<line opacity="0.5" x1="1001.5" y1="230" x2="1001.5" y2="475" stroke="white"/>
<line opacity="0.5" x1="874" y1="284.5" x2="1065" y2="284.5" stroke="white"/>
<line opacity="0.5" x1="874" y1="355.5" x2="1065" y2="355.5" stroke="white"/>
<line opacity="0.5" x1="874" y1="426.5" x2="1065" y2="426.5" stroke="white"/>
<rect opacity="0.5" x="533" y="227" width="229" height="255" stroke="white" stroke-width="2"/>
<rect x="547" y="246" width="200" height="43" fill="#D9C1E4"/>
<path d="M553.5 289L582 275L607.5 289L649 269L681 289L724 258.5L746.5 277V289H681H607.5H553.5Z" fill="#D3B8DF"/>
<rect opacity="0.7" x="547" y="304" width="79" height="60" fill="#BCFFFB"/>
<rect opacity="0.7" x="637" y="304" width="106" height="7" fill="#BCFFFB"/>
<rect opacity="0.7" x="637" y="323" width="86" height="7" fill="#BCFFFB"/>
<rect opacity="0.7" x="637" y="343" width="86" height="7" fill="#BCFFFB"/>
<rect x="317" y="416" width="66" height="66" fill="#D9C1E4"/>
<path opacity="0.5" d="M318 482L383 417V482H318Z" fill="#6C438C"/>
<path opacity="0.7" d="M221 416L286 481L221 481L221 416Z" fill="#BCFFFB"/>
<circle opacity="0.7" cx="140" cy="451" r="30" fill="white"/>
<circle cx="140" cy="451" r="34.5" stroke="white" stroke-opacity="0.7"/>
<path d="M113.688 114H106.117L106.164 107.672H113.688C115.25 107.672 116.57 107.297 117.648 106.547C118.742 105.797 119.57 104.68 120.133 103.195C120.711 101.695 121 99.8516 121 97.6641V96.1875C121 94.5469 120.836 93.1094 120.508 91.875C120.195 90.625 119.727 89.5859 119.102 88.7578C118.477 87.9141 117.695 87.2812 116.758 86.8594C115.836 86.4375 114.773 86.2266 113.57 86.2266H105.977V79.875H113.57C115.883 79.875 118 80.2734 119.922 81.0703C121.859 81.8516 123.531 82.9766 124.938 84.4453C126.359 85.8984 127.453 87.625 128.219 89.625C129 91.6094 129.391 93.8125 129.391 96.2344V97.6641C129.391 100.07 129 102.273 128.219 104.273C127.453 106.273 126.367 108 124.961 109.453C123.555 110.906 121.891 112.031 119.969 112.828C118.062 113.609 115.969 114 113.688 114ZM110.828 79.875V114H102.602V79.875H110.828ZM145.586 114.469C143.523 114.469 141.68 114.148 140.055 113.508C138.43 112.852 137.055 111.953 135.93 110.812C134.82 109.672 133.969 108.359 133.375 106.875C132.797 105.391 132.508 103.82 132.508 102.164V101.273C132.508 99.4141 132.766 97.6953 133.281 96.1172C133.797 94.5234 134.562 93.1328 135.578 91.9453C136.594 90.7578 137.867 89.8359 139.398 89.1797C140.93 88.5078 142.711 88.1719 144.742 88.1719C146.539 88.1719 148.148 88.4609 149.57 89.0391C150.992 89.6172 152.195 90.4453 153.18 91.5234C154.18 92.6016 154.938 93.9062 155.453 95.4375C155.984 96.9688 156.25 98.6875 156.25 100.594V103.805H135.531V98.8594H148.539V98.25C148.555 97.4062 148.406 96.6875 148.094 96.0938C147.797 95.5 147.359 95.0469 146.781 94.7344C146.203 94.4219 145.5 94.2656 144.672 94.2656C143.812 94.2656 143.102 94.4531 142.539 94.8281C141.992 95.2031 141.562 95.7188 141.25 96.375C140.953 97.0156 140.742 97.7578 140.617 98.6016C140.492 99.4453 140.43 100.336 140.43 101.273V102.164C140.43 103.102 140.555 103.953 140.805 104.719C141.07 105.484 141.445 106.141 141.93 106.688C142.43 107.219 143.023 107.633 143.711 107.93C144.414 108.227 145.211 108.375 146.102 108.375C147.18 108.375 148.242 108.172 149.289 107.766C150.336 107.359 151.234 106.688 151.984 105.75L155.57 110.016C155.055 110.75 154.32 111.461 153.367 112.148C152.43 112.836 151.305 113.398 149.992 113.836C148.68 114.258 147.211 114.469 145.586 114.469ZM172.75 106.875C172.75 106.438 172.602 106.062 172.305 105.75C172.023 105.422 171.523 105.125 170.805 104.859C170.086 104.578 169.078 104.297 167.781 104.016C166.547 103.75 165.383 103.398 164.289 102.961C163.211 102.523 162.266 101.992 161.453 101.367C160.641 100.742 160 100 159.531 99.1406C159.078 98.2812 158.852 97.2969 158.852 96.1875C158.852 95.1094 159.078 94.0938 159.531 93.1406C160 92.1719 160.68 91.3203 161.57 90.5859C162.477 89.8359 163.578 89.25 164.875 88.8281C166.172 88.3906 167.648 88.1719 169.305 88.1719C171.586 88.1719 173.555 88.5234 175.211 89.2266C176.867 89.9141 178.141 90.8828 179.031 92.1328C179.938 93.3672 180.391 94.7969 180.391 96.4219H172.492C172.492 95.7812 172.383 95.2344 172.164 94.7812C171.961 94.3281 171.625 93.9844 171.156 93.75C170.688 93.5 170.062 93.375 169.281 93.375C168.734 93.375 168.234 93.4766 167.781 93.6797C167.344 93.8828 166.992 94.1641 166.727 94.5234C166.461 94.8828 166.328 95.3047 166.328 95.7891C166.328 96.1328 166.406 96.4453 166.562 96.7266C166.734 96.9922 166.992 97.2422 167.336 97.4766C167.68 97.6953 168.117 97.8984 168.648 98.0859C169.18 98.2578 169.82 98.4141 170.57 98.5547C172.273 98.8672 173.867 99.3125 175.352 99.8906C176.836 100.469 178.039 101.289 178.961 102.352C179.898 103.414 180.367 104.844 180.367 106.641C180.367 107.766 180.109 108.805 179.594 109.758C179.078 110.695 178.336 111.523 177.367 112.242C176.398 112.945 175.234 113.492 173.875 113.883C172.516 114.273 170.984 114.469 169.281 114.469C166.859 114.469 164.812 114.039 163.141 113.18C161.469 112.305 160.203 111.211 159.344 109.898C158.5 108.57 158.078 107.227 158.078 105.867H165.438C165.469 106.648 165.656 107.289 166 107.789C166.359 108.289 166.836 108.656 167.43 108.891C168.023 109.125 168.711 109.242 169.492 109.242C170.211 109.242 170.805 109.141 171.273 108.938C171.758 108.734 172.125 108.461 172.375 108.117C172.625 107.758 172.75 107.344 172.75 106.875ZM192.414 88.6406V114H184.492V88.6406H192.414ZM184.023 82.1016C184.023 80.9766 184.43 80.0547 185.242 79.3359C186.055 78.6172 187.109 78.2578 188.406 78.2578C189.703 78.2578 190.758 78.6172 191.57 79.3359C192.383 80.0547 192.789 80.9766 192.789 82.1016C192.789 83.2266 192.383 84.1484 191.57 84.8672C190.758 85.5859 189.703 85.9453 188.406 85.9453C187.109 85.9453 186.055 85.5859 185.242 84.8672C184.43 84.1484 184.023 83.2266 184.023 82.1016ZM213.227 88.6406H220.398V113.016C220.398 115.359 219.859 117.344 218.781 118.969C217.703 120.609 216.195 121.852 214.258 122.695C212.336 123.555 210.086 123.984 207.508 123.984C206.367 123.984 205.203 123.836 204.016 123.539C202.828 123.258 201.719 122.836 200.688 122.273C199.656 121.711 198.789 121.016 198.086 120.188L201.391 115.547C202.031 116.266 202.836 116.875 203.805 117.375C204.773 117.891 205.914 118.148 207.227 118.148C208.367 118.148 209.32 117.945 210.086 117.539C210.867 117.133 211.461 116.539 211.867 115.758C212.273 114.992 212.477 114.062 212.477 112.969V94.6406L213.227 88.6406ZM196.375 101.625V101.133C196.375 99.2109 196.609 97.4609 197.078 95.8828C197.562 94.2891 198.25 92.9219 199.141 91.7812C200.047 90.625 201.141 89.7344 202.422 89.1094C203.703 88.4844 205.148 88.1719 206.758 88.1719C208.492 88.1719 209.914 88.5078 211.023 89.1797C212.148 89.8359 213.047 90.7578 213.719 91.9453C214.406 93.1328 214.938 94.5234 215.312 96.1172C215.703 97.6953 216.031 99.3984 216.297 101.227V101.812C216.031 103.531 215.664 105.156 215.195 106.688C214.742 108.203 214.148 109.547 213.414 110.719C212.68 111.891 211.758 112.812 210.648 113.484C209.555 114.141 208.242 114.469 206.711 114.469C205.117 114.469 203.68 114.148 202.398 113.508C201.133 112.867 200.047 111.969 199.141 110.812C198.25 109.656 197.562 108.297 197.078 106.734C196.609 105.172 196.375 103.469 196.375 101.625ZM204.273 101.133V101.625C204.273 102.578 204.359 103.461 204.531 104.273C204.719 105.086 205 105.805 205.375 106.43C205.75 107.039 206.211 107.516 206.758 107.859C207.32 108.203 207.977 108.375 208.727 108.375C209.867 108.375 210.789 108.133 211.492 107.648C212.195 107.164 212.703 106.477 213.016 105.586C213.328 104.695 213.461 103.648 213.414 102.445V100.594C213.445 99.5625 213.375 98.6562 213.203 97.875C213.031 97.0781 212.758 96.4141 212.383 95.8828C212.023 95.3516 211.539 94.9531 210.93 94.6875C210.336 94.4062 209.617 94.2656 208.773 94.2656C208.039 94.2656 207.391 94.4375 206.828 94.7812C206.266 95.125 205.797 95.6094 205.422 96.2344C205.047 96.8438 204.758 97.5703 204.555 98.4141C204.367 99.2422 204.273 100.148 204.273 101.133ZM232.703 94.0547V114H224.805V88.6406H232.211L232.703 94.0547ZM231.766 100.453L229.914 100.5C229.914 98.5625 230.148 96.8359 230.617 95.3203C231.086 93.7891 231.75 92.4922 232.609 91.4297C233.469 90.3672 234.492 89.5625 235.68 89.0156C236.883 88.4531 238.219 88.1719 239.688 88.1719C240.859 88.1719 241.93 88.3438 242.898 88.6875C243.883 89.0312 244.727 89.5859 245.43 90.3516C246.148 91.1172 246.695 92.1328 247.07 93.3984C247.461 94.6484 247.656 96.1953 247.656 98.0391V114H239.711V98.0156C239.711 97 239.57 96.2266 239.289 95.6953C239.008 95.1484 238.602 94.7734 238.07 94.5703C237.539 94.3672 236.891 94.2656 236.125 94.2656C235.312 94.2656 234.625 94.4219 234.062 94.7344C233.5 95.0469 233.047 95.4844 232.703 96.0469C232.375 96.5938 232.133 97.2422 231.977 97.9922C231.836 98.7422 231.766 99.5625 231.766 100.453ZM281.945 104.93C281.945 104.398 281.867 103.922 281.711 103.5C281.555 103.062 281.266 102.656 280.844 102.281C280.422 101.906 279.812 101.531 279.016 101.156C278.234 100.766 277.203 100.359 275.922 99.9375C274.422 99.4375 272.977 98.875 271.586 98.25C270.195 97.6094 268.953 96.8672 267.859 96.0234C266.766 95.1641 265.898 94.1641 265.258 93.0234C264.617 91.8672 264.297 90.5234 264.297 88.9922C264.297 87.5234 264.625 86.2031 265.281 85.0312C265.938 83.8438 266.852 82.8359 268.023 82.0078C269.211 81.1641 270.602 80.5234 272.195 80.0859C273.789 79.6328 275.531 79.4062 277.422 79.4062C279.922 79.4062 282.125 79.8438 284.031 80.7188C285.953 81.5781 287.453 82.8047 288.531 84.3984C289.625 85.9766 290.172 87.8438 290.172 90H281.992C281.992 89.1406 281.812 88.3828 281.453 87.7266C281.109 87.0703 280.586 86.5547 279.883 86.1797C279.18 85.8047 278.297 85.6172 277.234 85.6172C276.203 85.6172 275.336 85.7734 274.633 86.0859C273.93 86.3984 273.398 86.8203 273.039 87.3516C272.68 87.8672 272.5 88.4375 272.5 89.0625C272.5 89.5781 272.641 90.0469 272.922 90.4688C273.219 90.875 273.633 91.2578 274.164 91.6172C274.711 91.9766 275.367 92.3203 276.133 92.6484C276.914 92.9766 277.789 93.2969 278.758 93.6094C280.57 94.1875 282.18 94.8359 283.586 95.5547C285.008 96.2578 286.203 97.0625 287.172 97.9688C288.156 98.8594 288.898 99.875 289.398 101.016C289.914 102.156 290.172 103.445 290.172 104.883C290.172 106.414 289.875 107.773 289.281 108.961C288.688 110.148 287.836 111.156 286.727 111.984C285.617 112.797 284.289 113.414 282.742 113.836C281.195 114.258 279.469 114.469 277.562 114.469C275.812 114.469 274.086 114.25 272.383 113.812C270.695 113.359 269.164 112.672 267.789 111.75C266.414 110.812 265.312 109.617 264.484 108.164C263.672 106.695 263.266 104.953 263.266 102.938H271.516C271.516 103.938 271.648 104.781 271.914 105.469C272.18 106.156 272.57 106.711 273.086 107.133C273.602 107.539 274.234 107.836 274.984 108.023C275.734 108.195 276.594 108.281 277.562 108.281C278.609 108.281 279.453 108.133 280.094 107.836C280.734 107.523 281.203 107.117 281.5 106.617C281.797 106.102 281.945 105.539 281.945 104.93ZM301.82 111.023L308.383 88.6406H316.867L306.672 117.773C306.453 118.414 306.164 119.102 305.805 119.836C305.445 120.586 304.953 121.297 304.328 121.969C303.703 122.641 302.898 123.188 301.914 123.609C300.945 124.031 299.742 124.242 298.305 124.242C297.539 124.242 296.977 124.203 296.617 124.125C296.273 124.062 295.742 123.945 295.023 123.773V118.125C295.227 118.125 295.398 118.125 295.539 118.125C295.695 118.125 295.867 118.125 296.055 118.125C296.898 118.125 297.57 118.039 298.07 117.867C298.586 117.695 298.977 117.445 299.242 117.117C299.523 116.789 299.742 116.391 299.898 115.922L301.82 111.023ZM300.156 88.6406L305.148 106.383L306.016 114.75H300.719L291.695 88.6406H300.156ZM332.219 106.875C332.219 106.438 332.07 106.062 331.773 105.75C331.492 105.422 330.992 105.125 330.273 104.859C329.555 104.578 328.547 104.297 327.25 104.016C326.016 103.75 324.852 103.398 323.758 102.961C322.68 102.523 321.734 101.992 320.922 101.367C320.109 100.742 319.469 100 319 99.1406C318.547 98.2812 318.32 97.2969 318.32 96.1875C318.32 95.1094 318.547 94.0938 319 93.1406C319.469 92.1719 320.148 91.3203 321.039 90.5859C321.945 89.8359 323.047 89.25 324.344 88.8281C325.641 88.3906 327.117 88.1719 328.773 88.1719C331.055 88.1719 333.023 88.5234 334.68 89.2266C336.336 89.9141 337.609 90.8828 338.5 92.1328C339.406 93.3672 339.859 94.7969 339.859 96.4219H331.961C331.961 95.7812 331.852 95.2344 331.633 94.7812C331.43 94.3281 331.094 93.9844 330.625 93.75C330.156 93.5 329.531 93.375 328.75 93.375C328.203 93.375 327.703 93.4766 327.25 93.6797C326.812 93.8828 326.461 94.1641 326.195 94.5234C325.93 94.8828 325.797 95.3047 325.797 95.7891C325.797 96.1328 325.875 96.4453 326.031 96.7266C326.203 96.9922 326.461 97.2422 326.805 97.4766C327.148 97.6953 327.586 97.8984 328.117 98.0859C328.648 98.2578 329.289 98.4141 330.039 98.5547C331.742 98.8672 333.336 99.3125 334.82 99.8906C336.305 100.469 337.508 101.289 338.43 102.352C339.367 103.414 339.836 104.844 339.836 106.641C339.836 107.766 339.578 108.805 339.062 109.758C338.547 110.695 337.805 111.523 336.836 112.242C335.867 112.945 334.703 113.492 333.344 113.883C331.984 114.273 330.453 114.469 328.75 114.469C326.328 114.469 324.281 114.039 322.609 113.18C320.938 112.305 319.672 111.211 318.812 109.898C317.969 108.57 317.547 107.227 317.547 105.867H324.906C324.938 106.648 325.125 107.289 325.469 107.789C325.828 108.289 326.305 108.656 326.898 108.891C327.492 109.125 328.18 109.242 328.961 109.242C329.68 109.242 330.273 109.141 330.742 108.938C331.227 108.734 331.594 108.461 331.844 108.117C332.094 107.758 332.219 107.344 332.219 106.875ZM356.898 88.6406V94.125H341.617V88.6406H356.898ZM344.828 82.3359H352.727V105.727C352.727 106.398 352.805 106.922 352.961 107.297C353.117 107.656 353.383 107.914 353.758 108.07C354.148 108.211 354.664 108.281 355.305 108.281C355.758 108.281 356.133 108.273 356.43 108.258C356.727 108.227 357.008 108.188 357.273 108.141V113.789C356.602 114.008 355.898 114.172 355.164 114.281C354.43 114.406 353.648 114.469 352.82 114.469C351.133 114.469 349.688 114.203 348.484 113.672C347.297 113.141 346.391 112.305 345.766 111.164C345.141 110.023 344.828 108.539 344.828 106.711V82.3359ZM372.32 114.469C370.258 114.469 368.414 114.148 366.789 113.508C365.164 112.852 363.789 111.953 362.664 110.812C361.555 109.672 360.703 108.359 360.109 106.875C359.531 105.391 359.242 103.82 359.242 102.164V101.273C359.242 99.4141 359.5 97.6953 360.016 96.1172C360.531 94.5234 361.297 93.1328 362.312 91.9453C363.328 90.7578 364.602 89.8359 366.133 89.1797C367.664 88.5078 369.445 88.1719 371.477 88.1719C373.273 88.1719 374.883 88.4609 376.305 89.0391C377.727 89.6172 378.93 90.4453 379.914 91.5234C380.914 92.6016 381.672 93.9062 382.188 95.4375C382.719 96.9688 382.984 98.6875 382.984 100.594V103.805H362.266V98.8594H375.273V98.25C375.289 97.4062 375.141 96.6875 374.828 96.0938C374.531 95.5 374.094 95.0469 373.516 94.7344C372.938 94.4219 372.234 94.2656 371.406 94.2656C370.547 94.2656 369.836 94.4531 369.273 94.8281C368.727 95.2031 368.297 95.7188 367.984 96.375C367.688 97.0156 367.477 97.7578 367.352 98.6016C367.227 99.4453 367.164 100.336 367.164 101.273V102.164C367.164 103.102 367.289 103.953 367.539 104.719C367.805 105.484 368.18 106.141 368.664 106.688C369.164 107.219 369.758 107.633 370.445 107.93C371.148 108.227 371.945 108.375 372.836 108.375C373.914 108.375 374.977 108.172 376.023 107.766C377.07 107.359 377.969 106.688 378.719 105.75L382.305 110.016C381.789 110.75 381.055 111.461 380.102 112.148C379.164 112.836 378.039 113.398 376.727 113.836C375.414 114.258 373.945 114.469 372.32 114.469ZM394.164 94.0078V114H386.266V88.6406H393.672L394.164 94.0078ZM393.203 100.453L391.398 100.5C391.398 98.7188 391.609 97.0781 392.031 95.5781C392.453 94.0781 393.078 92.7734 393.906 91.6641C394.734 90.5547 395.75 89.6953 396.953 89.0859C398.172 88.4766 399.578 88.1719 401.172 88.1719C402.281 88.1719 403.289 88.3438 404.195 88.6875C405.102 89.0156 405.883 89.5391 406.539 90.2578C407.195 90.9609 407.695 91.8828 408.039 93.0234C408.398 94.1484 408.578 95.5 408.578 97.0781V114H400.68V98.0859C400.68 97.0078 400.555 96.1953 400.305 95.6484C400.07 95.1016 399.727 94.7344 399.273 94.5469C398.82 94.3594 398.266 94.2656 397.609 94.2656C396.922 94.2656 396.305 94.4219 395.758 94.7344C395.211 95.0469 394.742 95.4844 394.352 96.0469C393.977 96.5938 393.688 97.2422 393.484 97.9922C393.297 98.7422 393.203 99.5625 393.203 100.453ZM407.688 100.453L405.484 100.5C405.484 98.7188 405.68 97.0781 406.07 95.5781C406.477 94.0781 407.078 92.7734 407.875 91.6641C408.688 90.5547 409.695 89.6953 410.898 89.0859C412.102 88.4766 413.5 88.1719 415.094 88.1719C416.25 88.1719 417.312 88.3438 418.281 88.6875C419.25 89.0312 420.086 89.5859 420.789 90.3516C421.492 91.1172 422.039 92.1328 422.43 93.3984C422.82 94.6484 423.016 96.1953 423.016 98.0391V114H415.094V98.0391C415.094 96.9922 414.969 96.2031 414.719 95.6719C414.484 95.125 414.141 94.7578 413.688 94.5703C413.234 94.3672 412.695 94.2656 412.07 94.2656C411.32 94.2656 410.672 94.4219 410.125 94.7344C409.578 95.0469 409.117 95.4844 408.742 96.0469C408.383 96.5938 408.117 97.2422 407.945 97.9922C407.773 98.7422 407.688 99.5625 407.688 100.453Z" fill="white"/>
<path opacity="0.4" d="M131.594 251.57L119.113 292H105.859L124.668 240.812H133.07L131.594 251.57ZM141.93 292L129.414 251.57L127.797 240.812H136.305L155.219 292H141.93ZM141.438 272.91V282.438H115.176V272.91H141.438ZM179.863 270.238H166.68L166.609 262.152H177.297C179.219 262.152 180.754 261.941 181.902 261.52C183.051 261.074 183.883 260.43 184.398 259.586C184.938 258.742 185.207 257.688 185.207 256.422C185.207 254.969 184.938 253.797 184.398 252.906C183.859 252.016 183.004 251.371 181.832 250.973C180.684 250.551 179.195 250.34 177.367 250.34H171.32V292H158.98V240.812H177.367C180.531 240.812 183.355 241.105 185.84 241.691C188.324 242.254 190.434 243.121 192.168 244.293C193.926 245.465 195.262 246.941 196.176 248.723C197.09 250.48 197.547 252.555 197.547 254.945C197.547 257.031 197.102 258.988 196.211 260.816C195.32 262.645 193.832 264.133 191.746 265.281C189.684 266.406 186.859 266.992 183.273 267.039L179.863 270.238ZM179.371 292H163.691L167.91 282.508H179.371C181.059 282.508 182.406 282.25 183.414 281.734C184.445 281.195 185.184 280.492 185.629 279.625C186.098 278.734 186.332 277.75 186.332 276.672C186.332 275.359 186.109 274.223 185.664 273.262C185.242 272.301 184.562 271.562 183.625 271.047C182.688 270.508 181.434 270.238 179.863 270.238H169.492L169.562 262.152H181.973L184.855 265.387C188.277 265.246 190.984 265.727 192.977 266.828C194.992 267.93 196.434 269.383 197.301 271.188C198.168 272.992 198.602 274.879 198.602 276.848C198.602 280.199 197.875 283 196.422 285.25C194.992 287.5 192.848 289.188 189.988 290.312C187.129 291.438 183.59 292 179.371 292ZM234.566 274.668H246.871C246.707 278.23 245.746 281.371 243.988 284.09C242.23 286.809 239.793 288.93 236.676 290.453C233.582 291.953 229.926 292.703 225.707 292.703C222.285 292.703 219.227 292.129 216.531 290.98C213.859 289.832 211.586 288.18 209.711 286.023C207.859 283.867 206.441 281.254 205.457 278.184C204.496 275.113 204.016 271.656 204.016 267.812V265.035C204.016 261.191 204.52 257.734 205.527 254.664C206.559 251.57 208.012 248.945 209.887 246.789C211.785 244.609 214.059 242.945 216.707 241.797C219.355 240.648 222.297 240.074 225.531 240.074C229.984 240.074 233.746 240.871 236.816 242.465C239.887 244.059 242.266 246.25 243.953 249.039C245.641 251.805 246.637 254.957 246.941 258.496H234.637C234.59 256.574 234.262 254.969 233.652 253.68C233.043 252.367 232.082 251.383 230.77 250.727C229.457 250.07 227.711 249.742 225.531 249.742C224.008 249.742 222.684 250.023 221.559 250.586C220.434 251.148 219.496 252.039 218.746 253.258C217.996 254.477 217.434 256.059 217.059 258.004C216.707 259.926 216.531 262.246 216.531 264.965V267.812C216.531 270.531 216.695 272.852 217.023 274.773C217.352 276.695 217.879 278.266 218.605 279.484C219.332 280.703 220.27 281.605 221.418 282.191C222.59 282.754 224.02 283.035 225.707 283.035C227.582 283.035 229.164 282.742 230.453 282.156C231.742 281.547 232.738 280.633 233.441 279.414C234.145 278.172 234.52 276.59 234.566 274.668ZM130.926 324.812L113.418 380.395H104.98L122.488 324.812H130.926ZM154.41 366.438V350.758C154.41 349.68 154.258 348.754 153.953 347.98C153.648 347.207 153.168 346.609 152.512 346.188C151.855 345.742 150.977 345.52 149.875 345.52C148.984 345.52 148.223 345.672 147.59 345.977C146.957 346.281 146.477 346.738 146.148 347.348C145.82 347.957 145.656 348.73 145.656 349.668H133.809C133.809 347.91 134.195 346.281 134.969 344.781C135.766 343.258 136.891 341.934 138.344 340.809C139.82 339.684 141.578 338.816 143.617 338.207C145.68 337.574 147.977 337.258 150.508 337.258C153.531 337.258 156.227 337.762 158.594 338.77C160.984 339.777 162.871 341.289 164.254 343.305C165.637 345.297 166.328 347.805 166.328 350.828V366.402C166.328 368.887 166.469 370.773 166.75 372.062C167.031 373.328 167.43 374.441 167.945 375.402V376H156.062C155.5 374.828 155.078 373.398 154.797 371.711C154.539 370 154.41 368.242 154.41 366.438ZM155.852 352.762L155.922 359.09H150.684C149.582 359.09 148.645 359.242 147.871 359.547C147.121 359.852 146.512 360.273 146.043 360.812C145.598 361.328 145.27 361.914 145.059 362.57C144.871 363.227 144.777 363.918 144.777 364.645C144.777 365.348 144.941 365.98 145.27 366.543C145.621 367.082 146.09 367.504 146.676 367.809C147.262 368.113 147.918 368.266 148.645 368.266C149.957 368.266 151.07 368.02 151.984 367.527C152.922 367.012 153.637 366.391 154.129 365.664C154.621 364.938 154.867 364.258 154.867 363.625L157.469 368.477C157 369.414 156.461 370.363 155.852 371.324C155.266 372.285 154.527 373.176 153.637 373.996C152.77 374.793 151.703 375.449 150.438 375.965C149.172 376.457 147.637 376.703 145.832 376.703C143.488 376.703 141.332 376.223 139.363 375.262C137.418 374.301 135.859 372.965 134.688 371.254C133.516 369.52 132.93 367.527 132.93 365.277C132.93 363.309 133.281 361.551 133.984 360.004C134.711 358.457 135.801 357.145 137.254 356.066C138.707 354.988 140.559 354.168 142.809 353.605C145.059 353.043 147.707 352.762 150.754 352.762H155.852ZM173.008 322H184.855V366.648L183.625 376H173.008V322ZM208.199 356.559V357.297C208.199 360.18 207.906 362.805 207.32 365.172C206.734 367.539 205.832 369.59 204.613 371.324C203.395 373.035 201.859 374.359 200.008 375.297C198.156 376.234 195.965 376.703 193.434 376.703C191.137 376.703 189.168 376.211 187.527 375.227C185.887 374.219 184.516 372.836 183.414 371.078C182.312 369.297 181.422 367.246 180.742 364.926C180.062 362.582 179.523 360.074 179.125 357.402V356.523C179.523 353.875 180.062 351.391 180.742 349.07C181.422 346.727 182.312 344.676 183.414 342.918C184.516 341.137 185.875 339.754 187.492 338.77C189.133 337.762 191.09 337.258 193.363 337.258C195.918 337.258 198.121 337.738 199.973 338.699C201.848 339.66 203.395 341.008 204.613 342.742C205.832 344.477 206.734 346.516 207.32 348.859C207.906 351.203 208.199 353.77 208.199 356.559ZM196.352 357.297V356.559C196.352 355.176 196.27 353.875 196.105 352.656C195.941 351.438 195.648 350.359 195.227 349.422C194.805 348.484 194.207 347.746 193.434 347.207C192.66 346.668 191.652 346.398 190.41 346.398C189.145 346.398 188.078 346.609 187.211 347.031C186.367 347.453 185.688 348.062 185.172 348.859C184.68 349.633 184.328 350.594 184.117 351.742C183.906 352.867 183.812 354.145 183.836 355.574V358.352C183.789 360.297 183.965 361.961 184.363 363.344C184.762 364.727 185.453 365.781 186.438 366.508C187.422 367.234 188.77 367.598 190.48 367.598C191.746 367.598 192.766 367.352 193.539 366.859C194.336 366.367 194.934 365.664 195.332 364.75C195.73 363.836 196 362.746 196.141 361.48C196.281 360.215 196.352 358.82 196.352 357.297ZM229.539 367.562C230.641 367.562 231.578 367.363 232.352 366.965C233.148 366.543 233.746 365.957 234.145 365.207C234.566 364.434 234.766 363.508 234.742 362.43H245.887C245.91 365.289 245.207 367.797 243.777 369.953C242.371 372.086 240.449 373.75 238.012 374.945C235.598 376.117 232.867 376.703 229.82 376.703C226.844 376.703 224.242 376.223 222.016 375.262C219.789 374.277 217.926 372.918 216.426 371.184C214.949 369.426 213.836 367.375 213.086 365.031C212.359 362.688 211.996 360.145 211.996 357.402V356.594C211.996 353.852 212.359 351.309 213.086 348.965C213.836 346.598 214.949 344.547 216.426 342.812C217.926 341.055 219.777 339.695 221.98 338.734C224.207 337.75 226.797 337.258 229.75 337.258C232.914 337.258 235.703 337.855 238.117 339.051C240.555 340.246 242.465 341.98 243.848 344.254C245.23 346.527 245.91 349.281 245.887 352.516H234.742C234.766 351.367 234.59 350.336 234.215 349.422C233.84 348.508 233.254 347.781 232.457 347.242C231.684 346.68 230.688 346.398 229.469 346.398C228.25 346.398 227.266 346.668 226.516 347.207C225.766 347.746 225.191 348.496 224.793 349.457C224.418 350.395 224.16 351.473 224.02 352.691C223.902 353.91 223.844 355.211 223.844 356.594V357.402C223.844 358.809 223.902 360.133 224.02 361.375C224.16 362.594 224.43 363.672 224.828 364.609C225.227 365.523 225.801 366.25 226.551 366.789C227.301 367.305 228.297 367.562 229.539 367.562Z" fill="white"/>
<rect x="606" y="385" width="83" height="20" fill="#6C438C"/>
<path d="M674 389L679.5 394.5L674 400" stroke="#A9E7F6" stroke-width="2"/>
<path d="M679 395H659" stroke="#A9E7F6" stroke-width="2"/>
</g>
<defs>
<filter id="filter0_f_427_8" x="471" y="-427" width="1158" height="1158" filterUnits="userSpaceOnUse" color-interpolation-filters="sRGB">
<feFlood flood-opacity="0" result="BackgroundImageFix"/>
<feBlend mode="normal" in="SourceGraphic" in2="BackgroundImageFix" result="shape"/>
<feGaussianBlur stdDeviation="122" result="effect1_foregroundBlur_427_8"/>
</filter>
<filter id="filter1_f_427_8" x="-239" y="-173" width="1158" height="1158" filterUnits="userSpaceOnUse" color-interpolation-filters="sRGB">
<feFlood flood-opacity="0" result="BackgroundImageFix"/>
<feBlend mode="normal" in="SourceGraphic" in2="BackgroundImageFix" result="shape"/>
<feGaussianBlur stdDeviation="122" result="effect1_foregroundBlur_427_8"/>
</filter>
<linearGradient id="paint0_linear_427_8" x1="1050" y1="-183" x2="1050" y2="487" gradientUnits="userSpaceOnUse">
<stop stop-color="#3EB1CA" stop-opacity="0.26"/>
<stop offset="1" stop-color="#81FFD1" stop-opacity="0.79"/>
</linearGradient>
<linearGradient id="paint1_linear_427_8" x1="340" y1="71" x2="340" y2="741" gradientUnits="userSpaceOnUse">
<stop stop-color="#41FEC5" stop-opacity="0.26"/>
<stop offset="1" stop-color="#B31FE8" stop-opacity="0.79"/>
</linearGradient>
<clipPath id="clip0_427_8">
<rect width="1200" height="640" fill="white"/>
</clipPath>
</defs>
</svg>
