<svg width="823" height="175" viewBox="0 0 823 175" fill="none" xmlns="http://www.w3.org/2000/svg">
<circle cx="86" cy="86.0458" r="82.5" fill="#A3DEFF"/>
<circle cx="413" cy="87.0458" r="82.5" fill="#BBA3FF"/>
<circle cx="735" cy="87.0458" r="82.5" fill="#A3FFC8"/>
<path d="M256 86.0458C256 86.0458 154 173 101.5 173.546C49 174.092 1 142.092 1 86.0458C1 30 47 1.0458 101.5 1.0458C156 1.0458 256 86.0458 256 86.0458ZM256 86.0458C256 86.0458 343 1.00002 412 1.00002C481 1.00002 567 86.0458 567 86.0458M256 86.0458C256 86.0458 350 172.454 412 173C474 173.546 567 86.0458 567 86.0458M567 86.0458C567 86.0458 657 0.954239 723 1.00002C789 1.0458 821.5 45.5458 821.5 86C821.5 126.454 792 173 723 173C654 173 567 86.0458 567 86.0458Z" stroke="#0D7CFF" stroke-width="2" stroke-dasharray="6 6"/>
<path d="M45.0898 93.5458V77.9052H49.709C51.0911 77.9052 52.3158 78.2131 53.3828 78.829C54.457 79.4449 55.2878 80.3186 55.875 81.4501C56.4622 82.5816 56.7559 83.8778 56.7559 85.3388V86.123C56.7559 87.6054 56.4587 88.9088 55.8643 90.0331C55.277 91.1575 54.4355 92.024 53.3398 92.6327C52.2513 93.2414 51.0016 93.5458 49.5908 93.5458H45.0898ZM47.8076 80.0966V91.3759H49.5801C51.0052 91.3759 52.0973 90.9319 52.8564 90.0439C53.6227 89.1487 54.013 87.8668 54.0273 86.1982V85.328C54.0273 83.6308 53.6585 82.3345 52.9209 81.4394C52.1833 80.5442 51.1126 80.0966 49.709 80.0966H47.8076ZM61.9873 93.5458H59.377V81.9228H61.9873V93.5458ZM59.2158 78.9042C59.2158 78.5032 59.3411 78.1702 59.5918 77.9052C59.8496 77.6402 60.2148 77.5077 60.6875 77.5077C61.1602 77.5077 61.5254 77.6402 61.7832 77.9052C62.041 78.1702 62.1699 78.5032 62.1699 78.9042C62.1699 79.2981 62.041 79.6275 61.7832 79.8925C61.5254 80.1503 61.1602 80.2792 60.6875 80.2792C60.2148 80.2792 59.8496 80.1503 59.5918 79.8925C59.3411 79.6275 59.2158 79.2981 59.2158 78.9042ZM71.3545 90.3876C71.3545 89.9221 71.1611 89.5676 70.7744 89.3241C70.3949 89.0806 69.7611 88.8658 68.873 88.6796C67.985 88.4934 67.2438 88.2571 66.6494 87.9706C65.346 87.3404 64.6943 86.4273 64.6943 85.2314C64.6943 84.2287 65.1169 83.3909 65.9619 82.7177C66.807 82.0445 67.8812 81.7079 69.1846 81.7079C70.5739 81.7079 71.6947 82.0517 72.5469 82.7392C73.4062 83.4267 73.8359 84.3183 73.8359 85.414H71.2256C71.2256 84.9127 71.0394 84.4973 70.667 84.1679C70.2946 83.8313 69.8005 83.663 69.1846 83.663C68.6117 83.663 68.1426 83.7955 67.7773 84.0605C67.4193 84.3254 67.2402 84.6799 67.2402 85.1239C67.2402 85.525 67.4085 85.8365 67.7451 86.0585C68.0817 86.2805 68.762 86.5061 69.7861 86.7353C70.8102 86.9573 71.6123 87.2258 72.1924 87.5409C72.7796 87.8489 73.2129 88.2213 73.4922 88.6581C73.7786 89.095 73.9219 89.6249 73.9219 90.248C73.9219 91.2935 73.4886 92.1422 72.6221 92.7939C71.7555 93.4384 70.6204 93.7607 69.2168 93.7607C68.2643 93.7607 67.4157 93.5888 66.6709 93.245C65.9261 92.9013 65.346 92.4286 64.9307 91.8271C64.5153 91.2255 64.3076 90.5774 64.3076 89.8827H66.8428C66.8786 90.4986 67.1113 90.9748 67.541 91.3114C67.9707 91.6409 68.54 91.8056 69.249 91.8056C69.9365 91.8056 70.4593 91.6767 70.8174 91.4189C71.1755 91.1539 71.3545 90.8101 71.3545 90.3876ZM80.9795 91.6767C81.6312 91.6767 82.1719 91.4869 82.6016 91.1073C83.0312 90.7278 83.2604 90.2587 83.2891 89.7001H85.749C85.7204 90.4234 85.4948 91.1002 85.0723 91.7304C84.6497 92.3534 84.0768 92.8476 83.3535 93.2128C82.6302 93.578 81.8496 93.7607 81.0117 93.7607C79.3861 93.7607 78.097 93.2343 77.1445 92.1815C76.1921 91.1288 75.7158 89.675 75.7158 87.8202V87.5517C75.7158 85.7828 76.1885 84.3684 77.1338 83.3085C78.0791 82.2414 79.3682 81.7079 81.001 81.7079C82.3831 81.7079 83.5075 82.1125 84.374 82.9218C85.2477 83.7239 85.7061 84.7802 85.749 86.0907H83.2891C83.2604 85.4247 83.0312 84.8769 82.6016 84.4472C82.179 84.0175 81.6383 83.8026 80.9795 83.8026C80.1344 83.8026 79.4827 84.1106 79.0244 84.7265C78.5661 85.3352 78.3333 86.2626 78.3262 87.5087V87.9276C78.3262 89.1881 78.5518 90.1298 79.0029 90.7528C79.4613 91.3687 80.1201 91.6767 80.9795 91.6767ZM87.2314 87.6269C87.2314 86.4882 87.457 85.4641 87.9082 84.5546C88.3594 83.6379 88.9932 82.9361 89.8096 82.4491C90.626 81.955 91.5641 81.7079 92.624 81.7079C94.1924 81.7079 95.4635 82.2128 96.4375 83.2226C97.4186 84.2323 97.9486 85.5715 98.0273 87.2401L98.0381 87.8524C98.0381 88.9983 97.8161 90.0224 97.3721 90.9247C96.9352 91.8271 96.305 92.5253 95.4814 93.0194C94.665 93.5136 93.7197 93.7607 92.6455 93.7607C91.0055 93.7607 89.6914 93.2164 88.7031 92.1278C87.722 91.0321 87.2314 89.5748 87.2314 87.7558V87.6269ZM89.8418 87.8524C89.8418 89.0484 90.0889 89.9866 90.583 90.6669C91.0771 91.3401 91.7646 91.6767 92.6455 91.6767C93.5264 91.6767 94.2103 91.3329 94.6973 90.6454C95.1914 89.9579 95.4385 88.9517 95.4385 87.6269C95.4385 86.4524 95.1842 85.5214 94.6758 84.8339C94.1745 84.1464 93.4906 83.8026 92.624 83.8026C91.7718 83.8026 91.0951 84.1428 90.5938 84.8232C90.0924 85.4963 89.8418 86.5061 89.8418 87.8524ZM104.172 90.2372L106.632 81.9228H109.328L105.3 93.5458H103.033L98.9727 81.9228H101.68L104.172 90.2372ZM115.935 93.7607C114.28 93.7607 112.938 93.2414 111.906 92.203C110.882 91.1575 110.37 89.7681 110.37 88.0351V87.7128C110.37 86.5526 110.592 85.5178 111.036 84.6083C111.487 83.6916 112.118 82.9791 112.927 82.4706C113.736 81.9621 114.638 81.7079 115.634 81.7079C117.216 81.7079 118.438 82.2128 119.297 83.2226C120.163 84.2323 120.597 85.661 120.597 87.5087V88.5614H113.002C113.081 89.5211 113.399 90.2802 113.958 90.8388C114.524 91.3974 115.233 91.6767 116.085 91.6767C117.281 91.6767 118.255 91.1933 119.007 90.2265L120.414 91.5692C119.949 92.2639 119.326 92.8046 118.545 93.1913C117.771 93.5709 116.901 93.7607 115.935 93.7607ZM115.623 83.8026C114.907 83.8026 114.327 84.0533 113.883 84.5546C113.446 85.0559 113.167 85.7541 113.045 86.6493H118.019V86.456C117.961 85.5823 117.729 84.9234 117.32 84.4794C116.912 84.0282 116.346 83.8026 115.623 83.8026ZM128.718 84.3075C128.374 84.2502 128.02 84.2216 127.654 84.2216C126.458 84.2216 125.653 84.6799 125.237 85.5966V93.5458H122.627V81.9228H125.119L125.184 83.2226C125.814 82.2128 126.688 81.7079 127.805 81.7079C128.177 81.7079 128.485 81.758 128.729 81.8583L128.718 84.3075Z" fill="black"/>
<path d="M383.134 94.5458H379.793L379.814 92.4081H383.134C384.101 92.4081 384.91 92.1968 385.562 91.7743C386.22 91.3518 386.715 90.7467 387.044 89.9589C387.381 89.1711 387.549 88.233 387.549 87.1444V86.2958C387.549 85.4508 387.452 84.7024 387.259 84.0507C387.073 83.399 386.793 82.8511 386.421 82.4071C386.056 81.9631 385.604 81.6265 385.067 81.3974C384.537 81.1682 383.925 81.0536 383.23 81.0536H379.729V78.9052H383.23C384.269 78.9052 385.218 79.0806 386.077 79.4315C386.937 79.7753 387.678 80.273 388.301 80.9247C388.931 81.5764 389.414 82.357 389.751 83.2665C390.088 84.176 390.256 85.1929 390.256 86.3173V87.1444C390.256 88.2688 390.088 89.2857 389.751 90.1952C389.414 91.1047 388.931 91.8853 388.301 92.537C387.671 93.1815 386.919 93.6793 386.045 94.0302C385.178 94.3739 384.208 94.5458 383.134 94.5458ZM381.286 78.9052V94.5458H378.59V78.9052H381.286ZM397.829 94.7607C396.97 94.7607 396.193 94.621 395.498 94.3417C394.811 94.0552 394.223 93.6578 393.736 93.1493C393.257 92.6409 392.888 92.0429 392.63 91.3554C392.372 90.6679 392.243 89.9267 392.243 89.1317V88.7021C392.243 87.7926 392.376 86.969 392.641 86.2314C392.906 85.4937 393.274 84.8635 393.747 84.3407C394.22 83.8108 394.778 83.4062 395.423 83.1269C396.067 82.8476 396.766 82.7079 397.518 82.7079C398.348 82.7079 399.075 82.8476 399.698 83.1269C400.321 83.4062 400.837 83.8 401.245 84.3085C401.66 84.8098 401.968 85.4078 402.169 86.1024C402.377 86.7971 402.48 87.5634 402.48 88.4013V89.5077H393.5V87.6493H399.924V87.4452C399.91 86.9797 399.816 86.5429 399.645 86.1347C399.48 85.7265 399.226 85.397 398.882 85.1464C398.538 84.8957 398.08 84.7704 397.507 84.7704C397.077 84.7704 396.694 84.8635 396.357 85.0497C396.028 85.2287 395.752 85.4901 395.53 85.8339C395.308 86.1776 395.136 86.593 395.015 87.08C394.9 87.5598 394.843 88.1005 394.843 88.7021V89.1317C394.843 89.6402 394.911 90.1129 395.047 90.5497C395.19 90.9794 395.398 91.3554 395.67 91.6776C395.942 91.9999 396.271 92.2541 396.658 92.4403C397.045 92.6194 397.485 92.7089 397.979 92.7089C398.603 92.7089 399.158 92.5836 399.645 92.3329C400.132 92.0823 400.554 91.7278 400.912 91.2694L402.276 92.5907C402.026 92.956 401.7 93.3069 401.299 93.6435C400.898 93.9729 400.407 94.2414 399.827 94.4491C399.254 94.6568 398.588 94.7607 397.829 94.7607ZM411.021 91.3983C411.021 91.1405 410.956 90.9078 410.827 90.7001C410.698 90.4853 410.451 90.2919 410.086 90.12C409.728 89.9482 409.198 89.7906 408.496 89.6474C407.88 89.5113 407.314 89.3502 406.799 89.164C406.29 88.9706 405.854 88.7379 405.488 88.4657C405.123 88.1936 404.84 87.8713 404.64 87.4989C404.439 87.1265 404.339 86.6968 404.339 86.2099C404.339 85.7372 404.443 85.2896 404.65 84.8671C404.858 84.4446 405.155 84.0722 405.542 83.7499C405.929 83.4276 406.398 83.1734 406.949 82.9872C407.508 82.801 408.131 82.7079 408.818 82.7079C409.792 82.7079 410.627 82.8726 411.321 83.2021C412.023 83.5243 412.56 83.9648 412.933 84.5233C413.305 85.0748 413.491 85.6978 413.491 86.3925H410.902C410.902 86.0845 410.824 85.7981 410.666 85.5331C410.516 85.261 410.286 85.0426 409.979 84.8778C409.671 84.706 409.284 84.62 408.818 84.62C408.374 84.62 408.006 84.6916 407.712 84.8349C407.425 84.9709 407.211 85.15 407.067 85.372C406.931 85.594 406.863 85.8375 406.863 86.1024C406.863 86.2958 406.899 86.4713 406.971 86.6288C407.049 86.7792 407.178 86.9189 407.357 87.0478C407.536 87.1695 407.78 87.2841 408.088 87.3915C408.403 87.4989 408.797 87.6028 409.27 87.703C410.158 87.8892 410.92 88.1291 411.558 88.4228C412.202 88.7092 412.696 89.0816 413.04 89.5399C413.384 89.9911 413.556 90.564 413.556 91.2587C413.556 91.7743 413.445 92.247 413.223 92.6767C413.008 93.0992 412.693 93.468 412.277 93.7831C411.862 94.0911 411.364 94.331 410.784 94.5028C410.211 94.6747 409.567 94.7607 408.851 94.7607C407.798 94.7607 406.906 94.5745 406.176 94.2021C405.445 93.8225 404.89 93.3391 404.511 92.7519C404.138 92.1575 403.952 91.5416 403.952 90.9042H406.455C406.484 91.384 406.616 91.7672 406.853 92.0536C407.096 92.3329 407.397 92.537 407.755 92.6659C408.12 92.7877 408.496 92.8485 408.883 92.8485C409.348 92.8485 409.739 92.7877 410.054 92.6659C410.369 92.537 410.609 92.3651 410.773 92.1503C410.938 91.9283 411.021 91.6776 411.021 91.3983ZM418.594 82.9228V94.5458H415.994V82.9228H418.594ZM415.822 79.872C415.822 79.4781 415.951 79.1523 416.209 78.8944C416.474 78.6295 416.839 78.497 417.305 78.497C417.763 78.497 418.125 78.6295 418.39 78.8944C418.655 79.1523 418.787 79.4781 418.787 79.872C418.787 80.2587 418.655 80.581 418.39 80.8388C418.125 81.0966 417.763 81.2255 417.305 81.2255C416.839 81.2255 416.474 81.0966 416.209 80.8388C415.951 80.581 415.822 80.2587 415.822 79.872ZM428.874 82.9228H431.227V94.2235C431.227 95.2691 431.005 96.1571 430.561 96.8876C430.117 97.6181 429.497 98.1731 428.702 98.5526C427.907 98.9394 426.987 99.1327 425.941 99.1327C425.497 99.1327 425.003 99.0683 424.459 98.9394C423.922 98.8105 423.399 98.6028 422.891 98.3163C422.389 98.037 421.97 97.6682 421.634 97.2099L422.848 95.6845C423.263 96.1786 423.721 96.5403 424.223 96.7694C424.724 96.9986 425.25 97.1132 425.802 97.1132C426.396 97.1132 426.901 97.0022 427.316 96.7802C427.739 96.5653 428.065 96.2467 428.294 95.8241C428.523 95.4016 428.638 94.886 428.638 94.2773V85.5546L428.874 82.9228ZM420.979 88.8632V88.6376C420.979 87.7567 421.086 86.9547 421.301 86.2314C421.516 85.5009 421.824 84.8743 422.225 84.3515C422.626 83.8215 423.113 83.4169 423.686 83.1376C424.258 82.8511 424.907 82.7079 425.63 82.7079C426.382 82.7079 427.023 82.844 427.553 83.1161C428.09 83.3883 428.537 83.7786 428.896 84.287C429.254 84.7883 429.533 85.3899 429.733 86.0917C429.941 86.7864 430.095 87.5598 430.195 88.412V89.1317C430.102 89.9625 429.945 90.7216 429.723 91.4091C429.501 92.0966 429.207 92.691 428.842 93.1923C428.477 93.6936 428.025 94.0803 427.488 94.3524C426.958 94.6246 426.332 94.7607 425.608 94.7607C424.899 94.7607 424.258 94.6138 423.686 94.3202C423.12 94.0266 422.633 93.6148 422.225 93.0849C421.824 92.5549 421.516 91.9319 421.301 91.2157C421.086 90.4924 420.979 89.7082 420.979 88.8632ZM423.567 88.6376V88.8632C423.567 89.3931 423.618 89.8873 423.718 90.3456C423.825 90.8039 423.986 91.2086 424.201 91.5595C424.423 91.9032 424.702 92.1754 425.039 92.3759C425.383 92.5692 425.787 92.6659 426.253 92.6659C426.862 92.6659 427.359 92.537 427.746 92.2792C428.14 92.0214 428.441 91.6741 428.648 91.2372C428.863 90.7932 429.014 90.2991 429.1 89.7548V87.8105C429.057 87.3879 428.967 86.994 428.831 86.6288C428.702 86.2636 428.527 85.9449 428.305 85.6728C428.083 85.3935 427.803 85.1786 427.467 85.0282C427.13 84.8707 426.733 84.7919 426.274 84.7919C425.809 84.7919 425.404 84.8922 425.061 85.0927C424.717 85.2932 424.434 85.5689 424.212 85.9198C423.997 86.2707 423.836 86.6789 423.729 87.1444C423.621 87.6099 423.567 88.1077 423.567 88.6376ZM436.479 85.4042V94.5458H433.891V82.9228H436.329L436.479 85.4042ZM436.018 88.3046L435.18 88.2939C435.187 87.4703 435.301 86.7148 435.523 86.0273C435.753 85.3398 436.068 84.7489 436.469 84.2548C436.877 83.7607 437.364 83.3811 437.93 83.1161C438.495 82.844 439.126 82.7079 439.82 82.7079C440.379 82.7079 440.884 82.7867 441.335 82.9442C441.793 83.0946 442.184 83.3417 442.506 83.6855C442.835 84.0292 443.086 84.4768 443.258 85.0282C443.43 85.5725 443.516 86.2421 443.516 87.037V94.5458H440.916V87.0263C440.916 86.4677 440.834 86.0273 440.669 85.705C440.511 85.3756 440.279 85.1428 439.971 85.0067C439.67 84.8635 439.294 84.7919 438.843 84.7919C438.399 84.7919 438.001 84.885 437.65 85.0712C437.299 85.2574 437.002 85.5116 436.759 85.8339C436.522 86.1562 436.34 86.5286 436.211 86.9511C436.082 87.3736 436.018 87.8248 436.018 88.3046Z" fill="black"/>
<path d="M701.601 91.1405L705.575 78.9052H708.562L702.933 94.5458H700.301L694.693 78.9052H697.669L701.601 91.1405ZM716.532 94.5458C716.418 94.3238 716.317 93.9621 716.231 93.4608C715.401 94.3274 714.384 94.7607 713.181 94.7607C712.013 94.7607 711.061 94.4276 710.323 93.7616C709.586 93.0956 709.217 92.272 709.217 91.2909C709.217 90.052 709.675 89.1031 710.592 88.4442C711.516 87.7782 712.833 87.4452 714.545 87.4452H716.146V86.6825C716.146 86.081 715.977 85.6011 715.641 85.2431C715.304 84.8778 714.792 84.6952 714.104 84.6952C713.51 84.6952 713.023 84.8456 712.644 85.1464C712.264 85.44 712.074 85.816 712.074 86.2743H709.464C709.464 85.637 709.675 85.0426 710.098 84.4911C710.52 83.9325 711.093 83.4957 711.816 83.1806C712.547 82.8655 713.36 82.7079 714.255 82.7079C715.616 82.7079 716.701 83.0517 717.51 83.7392C718.319 84.4195 718.734 85.3791 718.756 86.6181V91.8603C718.756 92.9058 718.903 93.7401 719.196 94.3632V94.5458H716.532ZM713.664 92.6659C714.18 92.6659 714.663 92.5406 715.114 92.2899C715.573 92.0393 715.916 91.7027 716.146 91.2802V89.0888H714.738C713.771 89.0888 713.045 89.2571 712.558 89.5937C712.071 89.9302 711.827 90.4065 711.827 91.0224C711.827 91.5237 711.992 91.9247 712.321 92.2255C712.658 92.5191 713.105 92.6659 713.664 92.6659ZM724.267 94.5458H721.656V78.0458H724.267V94.5458ZM729.896 94.5458H727.285V82.9228H729.896V94.5458ZM727.124 79.9042C727.124 79.5032 727.249 79.1702 727.5 78.9052C727.758 78.6402 728.123 78.5077 728.596 78.5077C729.068 78.5077 729.434 78.6402 729.691 78.9052C729.949 79.1702 730.078 79.5032 730.078 79.9042C730.078 80.2981 729.949 80.6275 729.691 80.8925C729.434 81.1503 729.068 81.2792 728.596 81.2792C728.123 81.2792 727.758 81.1503 727.5 80.8925C727.249 80.6275 727.124 80.2981 727.124 79.9042ZM732.259 88.6483C732.259 86.858 732.674 85.4221 733.505 84.3407C734.336 83.2522 735.449 82.7079 736.846 82.7079C738.077 82.7079 739.073 83.1376 739.832 83.997V78.0458H742.442V94.5458H740.079L739.95 93.3427C739.17 94.288 738.128 94.7607 736.824 94.7607C735.464 94.7607 734.361 94.2128 733.516 93.1171C732.678 92.0214 732.259 90.5318 732.259 88.6483ZM734.869 88.8739C734.869 90.0556 735.095 90.9794 735.546 91.6454C736.004 92.3043 736.652 92.6337 737.49 92.6337C738.557 92.6337 739.338 92.1575 739.832 91.205V86.2421C739.352 85.3111 738.579 84.8456 737.512 84.8456C736.667 84.8456 736.015 85.1822 735.557 85.8554C735.098 86.5214 734.869 87.5276 734.869 88.8739ZM752.11 94.5458C751.996 94.3238 751.896 93.9621 751.81 93.4608C750.979 94.3274 749.962 94.7607 748.759 94.7607C747.591 94.7607 746.639 94.4276 745.901 93.7616C745.164 93.0956 744.795 92.272 744.795 91.2909C744.795 90.052 745.253 89.1031 746.17 88.4442C747.094 87.7782 748.411 87.4452 750.123 87.4452H751.724V86.6825C751.724 86.081 751.555 85.6011 751.219 85.2431C750.882 84.8778 750.37 84.6952 749.683 84.6952C749.088 84.6952 748.601 84.8456 748.222 85.1464C747.842 85.44 747.652 85.816 747.652 86.2743H745.042C745.042 85.637 745.253 85.0426 745.676 84.4911C746.098 83.9325 746.671 83.4957 747.395 83.1806C748.125 82.8655 748.938 82.7079 749.833 82.7079C751.194 82.7079 752.279 83.0517 753.088 83.7392C753.897 84.4195 754.312 85.3791 754.334 86.6181V91.8603C754.334 92.9058 754.481 93.7401 754.774 94.3632V94.5458H752.11ZM749.242 92.6659C749.758 92.6659 750.241 92.5406 750.692 92.2899C751.151 92.0393 751.494 91.7027 751.724 91.2802V89.0888H750.316C749.35 89.0888 748.623 89.2571 748.136 89.5937C747.649 89.9302 747.405 90.4065 747.405 91.0224C747.405 91.5237 747.57 91.9247 747.899 92.2255C748.236 92.5191 748.684 92.6659 749.242 92.6659ZM760.339 80.0976V82.9228H762.391V84.8564H760.339V91.3446C760.339 91.7886 760.425 92.1109 760.597 92.3114C760.776 92.5048 761.091 92.6015 761.542 92.6015C761.843 92.6015 762.147 92.5657 762.455 92.494V94.5136C761.861 94.6783 761.288 94.7607 760.736 94.7607C758.731 94.7607 757.729 93.6542 757.729 91.4413V84.8564H755.816V82.9228H757.729V80.0976H760.339ZM769.513 94.7607C767.858 94.7607 766.516 94.2414 765.484 93.203C764.46 92.1575 763.948 90.7681 763.948 89.0351V88.7128C763.948 87.5526 764.17 86.5178 764.614 85.6083C765.065 84.6916 765.696 83.9791 766.505 83.4706C767.314 82.9621 768.216 82.7079 769.212 82.7079C770.795 82.7079 772.016 83.2128 772.875 84.2226C773.742 85.2323 774.175 86.661 774.175 88.5087V89.5614H766.58C766.659 90.5211 766.978 91.2802 767.536 91.8388C768.102 92.3974 768.811 92.6767 769.663 92.6767C770.859 92.6767 771.833 92.1933 772.585 91.2265L773.992 92.5692C773.527 93.2639 772.904 93.8046 772.123 94.1913C771.35 94.5709 770.479 94.7607 769.513 94.7607ZM769.201 84.8026C768.485 84.8026 767.905 85.0533 767.461 85.5546C767.024 86.0559 766.745 86.7541 766.623 87.6493H771.597V87.456C771.539 86.5823 771.307 85.9234 770.898 85.4794C770.49 85.0282 769.924 84.8026 769.201 84.8026Z" fill="black"/>
<path d="M229.406 55L231.175 66.1746L220 67.9433" stroke="#0D7CFF" stroke-width="2"/>
<path d="M536.11 69.3084V57.9947H547.424" stroke="#0D7CFF" stroke-width="2"/>
<path d="M509.453 122.995H520.767V134.308" stroke="#0D7CFF" stroke-width="2"/>
<path d="M195.174 140.583L183.941 139.233L185.292 128" stroke="#0D7CFF" stroke-width="2"/>
</svg>
